<?xml version="1.0" encoding="UTF-8"?>
<svg id="Layer_2" data-name="Layer 2" xmlns="http://www.w3.org/2000/svg" viewBox="0 0 419.38 66">
  <defs>
    <style>
      .cls-1 {
        font-family: NotoSansSC-Medium, 'Noto Sans SC';
        font-variation-settings: 'wght' 500;
      }

      .cls-1, .cls-2 {
        font-weight: 500;
      }

      .cls-1, .cls-3 {
        fill: #231f20;
        font-size: 24px;
      }

      .cls-4 {
        fill: #782879;
      }

      .cls-2 {
        font-family: Futura-CondensedMedium, Futura;
      }

      .cls-5, .cls-6 {
        font-family: DINCondensed-Bold, 'DIN Condensed';
        font-weight: 700;
      }

      .cls-7 {
        fill: #f57f20;
      }

      .cls-6 {
        letter-spacing: -.01em;
      }
    </style>
  </defs>
  <g id="Layer_1-2" data-name="Layer 1">
    <g>
      <g>
        <path class="cls-7" d="M32.42,25.81L17.47,5.18C15.11,1.93,11.34,0,7.32,0h-.06C3.25,0,0,3.25,0,7.26v31.66h12.7v-20.84c0-.64.82-.9,1.19-.39l13.58,18.53c1.24,1.7,3.22,2.7,5.32,2.7h.2v-12.85c-.22.01-.44-.07-.58-.26Z"/>
        <path class="cls-4" d="M58.74,0c-4,0-7.76,1.91-10.12,5.13l-15.13,20.68c-.12.17-.3.25-.49.26v12.85h.21c2.1,0,4.07-1,5.31-2.68l13.68-18.55c.38-.51,1.19-.25,1.19.39v20.85h12.61V7.26c0-4.01-3.25-7.26-7.26-7.26Z"/>
      </g>
      <g>
        <path class="cls-4" d="M53.39,55.7l-14.6-12.87c-1.45-1.27-3.31-1.98-5.24-1.98h-.55v8.23c.17-.01.35.04.48.16l15.42,13.74c2.18,1.94,4.99,3.01,7.9,3.01h2.59c1.54,0,2.95-.53,4.07-1.41l-10.08-8.88h0Z"/>
        <path class="cls-7" d="M53.39,40.86v14.84l10.08,8.88c1.54-1.21,2.53-3.08,2.53-5.19v-18.54h-12.61Z"/>
      </g>
      <path class="cls-7" d="M13.39,63.11c.43.58.85,1.12,1.29,1.58.6.64.91.68,1.44.68.08,0,.17,0,.26,0,.03,0,.05,0,.08,0,0,0,0,0,0,0,0,0,0,0,.01,0,0,0,0,0,0,0,.16,0,.86.05,1.33.05.23,0,.4-.01.42-.04l-.25-.55-3.95-8.86-.61-1.36-1.63-3.66c-2.72,4.34-5.43,8.71-8.1,13.14-.2.33-.4.66-.6.99-.07.24-.35.93-.07.93,0,0,0,0,0,0,.45-.49.89-1,1.32-1.52,1.46-1.73,2.88-3.57,4.35-5.26.38-.43.59-.87.89-.87.13,0,.28.08.47.29,1.12,1.23,2.22,2.97,3.32,4.46Z"/>
      <path class="cls-4" d="M12.06,46.83c1.03-1.68,2.06-3.35,3.07-5.04.07-.24.35-.93.06-.93-1.07,1.17-2.1,2.44-3.14,3.71-.84,1.04-1.68,2.08-2.54,3.06-.54.62-.74,1.26-1.36.58-1.55-1.7-3.07-4.4-4.61-6.05-.72-.77-1.02-.67-1.8-.68-.24,0-1.68-.1-1.75,0l6.43,14.43c1.89-3.01,3.76-6.04,5.63-9.09Z"/>
      <path class="cls-4" d="M32.45,40.86c-1.93,0-3.79.7-5.24,1.98l-12.11,10.67.13.29.61,1.36,2.85,6.4,13.82-12.32c.14-.12.31-.17.48-.16v-8.23h-.55Z"/>
    </g>
  </g>
  <g id="Layer_2-2" data-name="Layer 2">
    <g>
      <text class="cls-1" transform="translate(78.91 30.54)"><tspan x="0" y="0">计算力学与人工智能交叉研究院</tspan></text>
      <text class="cls-3" transform="translate(78.91 56.25)"><tspan class="cls-5" x="0" y="0">Institute of Computational Me</tspan><tspan class="cls-6" x="216.09" y="0">c</tspan><tspan class="cls-5" x="224.68" y="0">hanics</tspan><tspan class="cls-2" x="274.02" y="0"> </tspan><tspan class="cls-5" x="278.99" y="0">×</tspan><tspan class="cls-2" x="293.39" y="0" xml:space="preserve"> AI</tspan></text>
    </g>
  </g>
</svg>